<svg id="svg5685" xmlns="http://www.w3.org/2000/svg" xmlns:xlink="http://www.w3.org/1999/xlink" viewBox="0 0 56.69 56.69"><defs><style>.cls-1{fill:url(#Dégradé_sans_nom);}.cls-2{fill:url(#Dégradé_sans_nom_2);}.cls-3{fill:url(#Dégradé_sans_nom_3);}.cls-4{fill:url(#Dégradé_sans_nom_4);}.cls-5{fill:url(#Dégradé_sans_nom_5);}.cls-6{fill:url(#Dégradé_sans_nom_6);}.cls-7{fill:url(#Dégradé_sans_nom_7);}.cls-8{fill:url(#Dégradé_sans_nom_8);}.cls-9{fill:url(#Dégradé_sans_nom_9);}.cls-10{fill:url(#Dégradé_sans_nom_10);}.cls-11{fill:url(#Dégradé_sans_nom_11);}.cls-12,.cls-13{isolation:isolate;}.cls-13{font-size:6.3px;fill:#f9f9f9;font-family:Arial-BoldMT, Arial;font-weight:700;}.cls-14{letter-spacing:-0.07em;}</style><linearGradient id="Dégradé_sans_nom" x1="-951.86" y1="557.17" x2="-950.86" y2="557.17" gradientTransform="matrix(-22.51, -36.42, -38.99, 21.03, 343.62, -46331.79)" gradientUnits="userSpaceOnUse"><stop offset="0" stop-color="#faad18"/><stop offset="0.21" stop-color="#faad18"/><stop offset="0.64" stop-color="#ee3a24"/><stop offset="1" stop-color="#b32024"/></linearGradient><linearGradient id="Dégradé_sans_nom_2" x1="-984.72" y1="538.53" x2="-983.72" y2="538.53" gradientTransform="matrix(-8.74, -14.14, -15.14, 8.17, -429.92, -18289.23)" xlink:href="#Dégradé_sans_nom"/><linearGradient id="Dégradé_sans_nom_3" x1="-953.44" y1="556.27" x2="-952.44" y2="556.27" gradientTransform="matrix(-20.93, -33.86, -36.25, 19.55, 242.34, -43117.7)" xlink:href="#Dégradé_sans_nom"/><linearGradient id="Dégradé_sans_nom_4" x1="-968.76" y1="547.58" x2="-967.76" y2="547.58" gradientTransform="matrix(-12.44, -20.12, -21.54, 11.62, -221.42, -25812.55)" xlink:href="#Dégradé_sans_nom"/><linearGradient id="Dégradé_sans_nom_5" x1="-969.08" y1="547.4" x2="-968.08" y2="547.4" gradientTransform="matrix(-12.33, -19.95, -21.36, 11.52, -233.42, -25602.06)" xlink:href="#Dégradé_sans_nom"/><linearGradient id="Dégradé_sans_nom_6" x1="-959.68" y1="552.73" x2="-958.68" y2="552.73" gradientTransform="matrix(-16.37, -26.49, -28.36, 15.29, -5.59, -33835.28)" xlink:href="#Dégradé_sans_nom"/><linearGradient id="Dégradé_sans_nom_7" x1="-949.76" y1="558.36" x2="-948.76" y2="558.36" gradientTransform="matrix(-25.04, -40.51, -43.36, 23.39, 469.55, -51486.78)" xlink:href="#Dégradé_sans_nom"/><linearGradient id="Dégradé_sans_nom_8" x1="-951.91" y1="557.14" x2="-950.91" y2="557.14" gradientTransform="matrix(-22.46, -36.35, -38.91, 20.98, 329.49, -46248.57)" xlink:href="#Dégradé_sans_nom"/><linearGradient id="Dégradé_sans_nom_9" x1="-947.38" y1="559.71" x2="-946.38" y2="559.71" gradientTransform="matrix(-28.67, -46.39, -49.66, 26.78, 683.04, -58881.41)" xlink:href="#Dégradé_sans_nom"/><linearGradient id="Dégradé_sans_nom_10" x1="-947.54" y1="559.62" x2="-946.54" y2="559.62" gradientTransform="matrix(-28.39, -45.94, -49.17, 26.52, 660.22, -58321.11)" xlink:href="#Dégradé_sans_nom"/><linearGradient id="Dégradé_sans_nom_11" x1="-960.18" y1="552.45" x2="-959.18" y2="552.45" gradientTransform="matrix(-16.09, -26.04, -27.88, 15.03, -16.92, -33269.06)" xlink:href="#Dégradé_sans_nom"/></defs><title>Plan de travail 1</title><g id="layer1"><g id="g20"><g id="g22"><g id="g28"><g id="g30"><path id="path42" class="cls-1" d="M31.7,29.86h0a1.92,1.92,0,0,0,1.93-.29h0a1.84,1.84,0,0,1-2.21-1.32h0a1.78,1.78,0,0,0,.28,1.61"/></g></g></g></g><g id="g44"><g id="g46"><g id="g52"><g id="g54"><path id="path66" class="cls-2" d="M20.94,30.16c-1.12.35-1,2.58-.75,3.55h0A3.11,3.11,0,0,1,21,32.53h0a6.83,6.83,0,0,0,1.34-1h0a2.81,2.81,0,0,0,.46-2h0a15,15,0,0,1-1.84.59"/></g></g></g></g><g id="g68"><g id="g70"><g id="g76"><g id="g78"><path id="path90" class="cls-3" d="M22.94,32.21c.3.79,1.51,1,1.13,1.89h0c1.6-.67-.32-2.82-.33-4h0c-.87.2-.95,1.68-.8,2.06"/></g></g></g></g><g id="g92"><g id="g94"><g id="g100"><g id="g102"><path id="path114" class="cls-4" d="M25.36,33.42a2.93,2.93,0,0,1,.84-2.2h0c.21-.26.54-.76.43-1.09h0A1.09,1.09,0,0,0,26.2,30h0c-1.12,0-1.43,2.46-.84,3.4"/></g></g></g></g><g id="g116"><g id="g118"><g id="g124"><g id="g126"><path id="path138" class="cls-5" d="M20.87,34.27c-.53,1.11,0,2.14.23,3.21h0a3.33,3.33,0,0,1,.65-1.43h0a5.7,5.7,0,0,0,1.12-1.7h0a3.3,3.3,0,0,0-.36-2h0a8.66,8.66,0,0,0-1.64,1.91"/></g></g></g></g><g id="g140"><g id="g142"><g id="g148"><g id="g150"><path id="path162" class="cls-6" d="M21.29,23.92a1.53,1.53,0,0,1,1.14.5h0a3.52,3.52,0,0,0,1.23.83h0c.68.13,1.08-.55,1.33-1h0c-.07,0-.25,0-.45,0h0a2.79,2.79,0,0,1-.66,0h0c-.78-.11-1.21-.5-1.87-.5h0a2.11,2.11,0,0,0-.72.14"/></g></g></g></g><g id="g164"><g id="g166"><g id="g172"><g id="g174"><path id="path186" class="cls-7" d="M19,21.22a2,2,0,0,0,1.64,1.59h0a3,3,0,0,0,1.9-.31h0a7.78,7.78,0,0,0,.89-.45h0a9.42,9.42,0,0,1-2.18-.95h0a6.39,6.39,0,0,0-3.39-1.34h0c.5.57,1,.64,1.14,1.46"/></g></g></g></g><g id="g188"><g id="g190"><g id="g196"><g id="g198"><path id="path210" class="cls-8" d="M16.64,15.74a1.86,1.86,0,0,1,1.91.85h0a3,3,0,0,0,1.56,1.71h0a3.57,3.57,0,0,0,2.51-.18h0a7.41,7.41,0,0,0,.85-.49h0A12,12,0,0,1,21.25,16h0a4.3,4.3,0,0,0-2.46-.63h0a6.73,6.73,0,0,0-2.15.34"/></g></g></g></g><g id="g212"><g id="g214"><g id="g220"><g id="g222"><path id="path234" class="cls-9" d="M23.42,12a1.78,1.78,0,0,0,1.94,1.53h0c-.14-.75.45-2.2.37-2.62h0c-.27-1.36-2.61-2.08-3.91-2.08h0c1.68.5,1.41,1.85,1.6,3.17"/></g></g></g></g><g id="g236"><g id="g238"><g id="g244"><g id="g246"><path id="path258" class="cls-10" d="M18.32,12.47c.62.7,2.45,1.37,3.12,2.08h0c.25-1,.85-2.41.42-3.18h0c-.27-.54-1.18-.68-1.71-.93h0a2.17,2.17,0,0,1-1.26-1.53h0c-1.56.61-1.48,2.56-.57,3.56"/></g></g></g></g><g id="g260"><g id="g262"><g id="g268"><g id="g270"><path id="path282" class="cls-11" d="M26.35,12.36c0,.49.5,1.35,1.76,1.14h0c-.77,1.24-5.7,1.68-5.45-.58h0A3.3,3.3,0,0,0,22.58,16h0a2.45,2.45,0,0,0,1.6,1h0A4.39,4.39,0,0,0,25.67,17h0c.1.85-.69,1.5-1.49,2h0a3.45,3.45,0,0,1-2.3.53h0a1.92,1.92,0,0,0-.39,0h0a2.45,2.45,0,0,0,1.88,1.67h0A4.54,4.54,0,0,0,24.84,21h0c.43-.08.78-.32,1.17-.42h0c-.1,1.52-1.81,1.87-3,2.24h0a3.72,3.72,0,0,0,2.58.92h0a6.73,6.73,0,0,0,1.87-.67h0a2.17,2.17,0,0,1-1.87,1.42h0a3.09,3.09,0,0,0,2.85.52h0c.55-.15,1-.44,1.54-.63h0a2.4,2.4,0,0,1-1.76,1.78h0A16.2,16.2,0,0,1,24,27h0a5.85,5.85,0,0,0-5.22,2.88h0a4.75,4.75,0,0,1,3.09-.61h0a2.34,2.34,0,0,0,2.4-1h0A2,2,0,0,0,24.79,31h0A1.84,1.84,0,0,1,26,29.54h0c.72-.21,1.45-.21,1.41-1.14h0c0,1.07.63,1.57,1.24,2.33h0c-.3-.56.33-1.4.78-1.68h0c-.72.71.34,2,1.06,2.27h0a4.32,4.32,0,0,0,2.9-.25h0c-3.59-.72-2-4.05-1.52-4.62h0c.16-.18.42.67.42.67h0a10.89,10.89,0,0,1,.44-1.22h0v0a.26.26,0,0,0,0,.17h0a.36.36,0,0,0,.43.16h0A6.93,6.93,0,0,1,33.38,24h0c.61,0,1-.44,1.62-.47h0c.1,0,.21,0,.35-.12h0a1,1,0,0,1,.94,0h0c-.43-.79-.8-.6-.92-.74h0a2.3,2.3,0,0,1-.48-.57h0a2.25,2.25,0,0,0-1.48-.56h0c-.47,0-1.23,0-1-.68h0c-.2.2-.46.55-.4.83h0c0,.25.38.46.26.49h0a3,3,0,0,1-1.46-1.09h0a3.16,3.16,0,0,1-.31-2.48h0c.3-1.75.9-5.81-1.26-6.61h0c-1.73-.64-2.1-1.87-2.47-2h0c.75.74-.39,1.56-.43,2.34M33,21.87c.28.09,1.34.53,1.86.68h0l-.52,0c-.07-.13.12-.11-1.34-.71"/></g></g></g></g><g id="text294" class="cls-12"><text class="cls-13" transform="translate(11.35 44.72) scale(1.07 1)">Afro <tspan class="cls-14" x="14.69" y="0">T</tspan><tspan x="18.06" y="0">ech</tspan></text></g></g></svg>