<?xml version="1.0" encoding="utf-8"?>
<!-- Generator: Adobe Illustrator 23.0.0, SVG Export Plug-In . SVG Version: 6.00 Build 0)  -->
<svg version="1.1"
	 id="svg8" inkscape:version="0.92.4 (5da689c313, 2019-01-14)" sodipodi:docname="logo.svg" xmlns:cc="http://creativecommons.org/ns#" xmlns:dc="http://purl.org/dc/elements/1.1/" xmlns:inkscape="http://www.inkscape.org/namespaces/inkscape" xmlns:rdf="http://www.w3.org/1999/02/22-rdf-syntax-ns#" xmlns:sodipodi="http://sodipodi.sourceforge.net/DTD/sodipodi-0.dtd" xmlns:svg="http://www.w3.org/2000/svg"
	 xmlns="http://www.w3.org/2000/svg" xmlns:xlink="http://www.w3.org/1999/xlink" x="0px" y="0px" viewBox="0 0 800 450"
	 style="enable-background:new 0 0 800 450;" xml:space="preserve">
<style type="text/css">
	.st0{fill:url(#path847_1_);}
	.st1{fill:url(#path871_1_);}
	.st2{fill:url(#path895_1_);}
	.st3{fill:url(#path919_1_);}
	.st4{fill:url(#path943_1_);}
	.st5{fill:url(#path967_1_);}
	.st6{fill:url(#path991_1_);}
	.st7{fill:url(#path1015_1_);}
	.st8{fill:url(#path1039_1_);}
	.st9{fill:url(#path1063_1_);}
	.st10{fill:url(#path1087_1_);}
	.st11{fill:#FFFFFF;}
	.st12{font-family:'Calibri';}
	.st13{font-size:69.7469px;}
</style>
<sodipodi:namedview  bordercolor="#666666" borderopacity="1.0" id="base" inkscape:current-layer="layer1" inkscape:cx="434.48853" inkscape:cy="174.43454" inkscape:document-units="mm" inkscape:pageopacity="0.0" inkscape:pageshadow="2" inkscape:window-height="960" inkscape:window-maximized="1" inkscape:window-width="1270" inkscape:window-x="0" inkscape:window-y="30" inkscape:zoom="0.98994949" pagecolor="#ffffff" showgrid="false" units="px">
	</sodipodi:namedview>
<g id="layer1" transform="translate(0,-177.93748)" inkscape:groupmode="layer" inkscape:label="Calque 1">
	<g id="g787" transform="matrix(0.84918098,0,0,-0.57013131,-10.533042,444.47699)">
		
			<g id="g825" inkscape:export-filename="C:\Users\josephkakou\Desktop\g1065.png" inkscape:export-xdpi="96" inkscape:export-ydpi="96">
			<g id="g827">
				<g id="g833">
					<g id="g835">
						
							<linearGradient id="path847_1_" gradientUnits="userSpaceOnUse" x1="-153.3252" y1="-1613.9935" x2="-152.3252" y2="-1613.9935" gradientTransform="matrix(-293.0621 507.5989 340.7963 196.7588 505900.2188 395096.9063)">
							<stop  offset="0" style="stop-color:#FAAD18"/>
							<stop  offset="0.2053" style="stop-color:#FAAD18"/>
							<stop  offset="0.6383" style="stop-color:#EE3A24"/>
							<stop  offset="1" style="stop-color:#B32024"/>
						</linearGradient>
						<path id="path847" inkscape:connector-curvature="0" class="st0" d="M556.7,79.8C556.7,79.8,556.7,79.8,556.7,79.8L556.7,79.8
							c8.5-6,22.2-0.8,29.6,4.8l0,0c-14.4-5.4-30.6,7.5-33.9,21.6l0,0C552,104.5,548.2,91.2,556.7,79.8"/>
					</g>
				</g>
			</g>
		</g>
		
			<g id="g849" inkscape:export-filename="C:\Users\josephkakou\Desktop\g1065.png" inkscape:export-xdpi="96" inkscape:export-ydpi="96">
			<g id="g851">
				<g id="g857">
					<g id="g859">
						
							<linearGradient id="path871_1_" gradientUnits="userSpaceOnUse" x1="-156.5413" y1="-1616.0026" x2="-155.5413" y2="-1616.0026" gradientTransform="matrix(-113.8072 197.1199 132.3441 76.409 196496.9219 154309.2031)">
							<stop  offset="0" style="stop-color:#FAAD18"/>
							<stop  offset="0.2053" style="stop-color:#FAAD18"/>
							<stop  offset="0.6383" style="stop-color:#EE3A24"/>
							<stop  offset="1" style="stop-color:#B32024"/>
						</linearGradient>
						<path id="path871" inkscape:connector-curvature="0" class="st1" d="M391.9,74.8c-17.2-5.6-15.1-42.3-11.6-58.1l0,0
							c3.5,7,5.8,14,12.3,19.3l0,0c7,5.8,14.6,8.8,20.4,16.4l0,0c3.5,4.1,10.1,22.4,7.2,32.2l0,0C414.8,81.6,407.2,80.2,391.9,74.8"
							/>
					</g>
				</g>
			</g>
		</g>
		
			<g id="g873" inkscape:export-filename="C:\Users\josephkakou\Desktop\g1065.png" inkscape:export-xdpi="96" inkscape:export-ydpi="96">
			<g id="g875">
				<g id="g881">
					<g id="g883">
						
							<linearGradient id="path895_1_" gradientUnits="userSpaceOnUse" x1="-153.4795" y1="-1614.0898" x2="-152.4795" y2="-1614.0898" gradientTransform="matrix(-272.4794 471.9483 316.8609 182.9398 470182.375 367545.0625)">
							<stop  offset="0" style="stop-color:#FAAD18"/>
							<stop  offset="0.2053" style="stop-color:#FAAD18"/>
							<stop  offset="0.6383" style="stop-color:#EE3A24"/>
							<stop  offset="1" style="stop-color:#B32024"/>
						</linearGradient>
						<path id="path895" inkscape:connector-curvature="0" class="st2" d="M422.4,41.2c4.7-12.8,23.2-15.7,17.3-30.9l0,0
							c24.5,10.9-4.9,46.2-5,64.8l0,0C421.3,71.9,420.2,47.5,422.4,41.2"/>
					</g>
				</g>
			</g>
		</g>
		
			<g id="g897" inkscape:export-filename="C:\Users\josephkakou\Desktop\g1065.png" inkscape:export-xdpi="96" inkscape:export-ydpi="96">
			<g id="g899">
				<g id="g905">
					<g id="g907">
						
							<linearGradient id="path919_1_" gradientUnits="userSpaceOnUse" x1="-154.9795" y1="-1615.027" x2="-153.9795" y2="-1615.027" gradientTransform="matrix(-161.8968 280.4136 188.2666 108.6958 279517.125 218909.8281)">
							<stop  offset="0" style="stop-color:#FAAD18"/>
							<stop  offset="0.2053" style="stop-color:#FAAD18"/>
							<stop  offset="0.6383" style="stop-color:#EE3A24"/>
							<stop  offset="1" style="stop-color:#B32024"/>
						</linearGradient>
						<path id="path919" inkscape:connector-curvature="0" class="st3" d="M459.7,21.4c0,16.9,3.5,23.3,12.8,36.2l0,0
							c3.2,4.3,8.3,12.4,6.6,17.8l0,0c-2.4,1.3-4.6,1.8-6.7,1.9l0,0C455.4,77.2,450.6,36.9,459.7,21.4"/>
					</g>
				</g>
			</g>
		</g>
		
			<g id="g921" inkscape:export-filename="C:\Users\josephkakou\Desktop\g1065.png" inkscape:export-xdpi="96" inkscape:export-ydpi="96">
			<g id="g923">
				<g id="g929">
					<g id="g931">
						
							<linearGradient id="path943_1_" gradientUnits="userSpaceOnUse" x1="-155.0105" y1="-1615.0463" x2="-154.0105" y2="-1615.0463" gradientTransform="matrix(-160.5498 278.0805 186.7002 107.7915 277097.3125 217104.3281)">
							<stop  offset="0" style="stop-color:#FAAD18"/>
							<stop  offset="0.2053" style="stop-color:#FAAD18"/>
							<stop  offset="0.6383" style="stop-color:#EE3A24"/>
							<stop  offset="1" style="stop-color:#B32024"/>
						</linearGradient>
						<path id="path943" inkscape:connector-curvature="0" class="st4" d="M390.8,7.4c-8.2-18.1,0-35,3.5-52.5l0,0
							c2.3,9.3,4.1,15.8,9.9,23.3l0,0c4.7,6.4,16,19.7,17.2,27.9l0,0c2.1,10.1-0.8,22.8-5.4,32.7l0,0C408.5,32.3,394.8,16,390.8,7.4
							"/>
					</g>
				</g>
			</g>
		</g>
		
			<g id="g945" inkscape:export-filename="C:\Users\josephkakou\Desktop\g1065.png" inkscape:export-xdpi="96" inkscape:export-ydpi="96">
			<g id="g947">
				<g id="g953">
					<g id="g955">
						
							<linearGradient id="path967_1_" gradientUnits="userSpaceOnUse" x1="-154.0908" y1="-1614.4718" x2="-153.0908" y2="-1614.4718" gradientTransform="matrix(-213.1422 369.1732 247.8588 143.1015 367887.875 287843.5938)">
							<stop  offset="0" style="stop-color:#FAAD18"/>
							<stop  offset="0.2053" style="stop-color:#FAAD18"/>
							<stop  offset="0.6383" style="stop-color:#EE3A24"/>
							<stop  offset="1" style="stop-color:#B32024"/>
						</linearGradient>
						<path id="path967" inkscape:connector-curvature="0" class="st5" d="M397.2,177.3c8.2-1.2,11.7-1.7,17.5-8.2l0,0
							c4.7-4.1,12.4-12.4,18.8-13.6l0,0c10.5-2.1,16.5,8.9,20.4,16l0,0c-1.1,0.1-3.9,0-6.9-0.2l0,0c-4.2-0.2-8.8-0.4-10.2,0.1l0,0
							c-11.9,1.8-18.5,8.2-28.6,8.2l0,0C405.1,179.7,401.5,179,397.2,177.3"/>
					</g>
				</g>
			</g>
		</g>
		
			<g id="g969" inkscape:export-filename="C:\Users\josephkakou\Desktop\g1065.png" inkscape:export-xdpi="96" inkscape:export-ydpi="96">
			<g id="g971">
				<g id="g977">
					<g id="g979">
						
							<linearGradient id="path991_1_" gradientUnits="userSpaceOnUse" x1="-153.1193" y1="-1613.8649" x2="-152.1193" y2="-1613.8649" gradientTransform="matrix(-325.9403 564.5454 379.0295 218.8329 562405.1875 439450.875)">
							<stop  offset="0" style="stop-color:#FAAD18"/>
							<stop  offset="0.2053" style="stop-color:#FAAD18"/>
							<stop  offset="0.6383" style="stop-color:#EE3A24"/>
							<stop  offset="1" style="stop-color:#B32024"/>
						</linearGradient>
						<path id="path991" inkscape:connector-curvature="0" class="st6" d="M362.7,221.7c2.9-12.3,10.6-23.1,25.2-26.1l0,0
							c11.1-2.3,18.6,0.4,29.1,5l0,0c3.5,1.2,13.5,7.4,13.5,7.4l0,0c-6.6,2.6-28.2,9.9-33.4,15.6l0,0c-12.3,13.4-33.9,18.4-52,21.9
							l0,0C352.8,236.3,359.8,235.1,362.7,221.7"/>
					</g>
				</g>
			</g>
		</g>
		
			<g id="g993" inkscape:export-filename="C:\Users\josephkakou\Desktop\g1065.png" inkscape:export-xdpi="96" inkscape:export-ydpi="96">
			<g id="g995">
				<g id="g1001">
					<g id="g1003">
						
							<linearGradient id="path1015_1_" gradientUnits="userSpaceOnUse" x1="-153.3294" y1="-1613.9961" x2="-152.3294" y2="-1613.9961" gradientTransform="matrix(-292.4578 506.552 340.0934 196.3531 504680.5938 394471.0938)">
							<stop  offset="0" style="stop-color:#FAAD18"/>
							<stop  offset="0.2053" style="stop-color:#FAAD18"/>
							<stop  offset="0.6383" style="stop-color:#EE3A24"/>
							<stop  offset="1" style="stop-color:#B32024"/>
						</linearGradient>
						<path id="path1015" inkscape:connector-curvature="0" class="st7" d="M326,311.6c12.8,0.6,22.8-2.3,29.2-14l0,0
							c5.8-11.7,11.1-22.8,23.9-28l0,0c11.7-4.1,27.4-2.9,38.5,2.9l0,0c3,1.3,9.9,6,12.9,8l0,0c-11.8,5.1-27.4,21.1-34,26.4l0,0
							c-9.5,7.3-23.6,10.3-37.8,10.3l0,0C346.9,317.2,335,315,326,311.6"/>
					</g>
				</g>
			</g>
		</g>
		
			<g id="g1017" inkscape:export-filename="C:\Users\josephkakou\Desktop\g1065.png" inkscape:export-xdpi="96" inkscape:export-ydpi="96">
			<g id="g1019">
				<g id="g1025">
					<g id="g1027">
						
							<linearGradient id="path1039_1_" gradientUnits="userSpaceOnUse" x1="-152.8866" y1="-1613.7195" x2="-151.8866" y2="-1613.7195" gradientTransform="matrix(-373.2395 646.47 434.0328 250.5891 644189.875 502907.125)">
							<stop  offset="0" style="stop-color:#FAAD18"/>
							<stop  offset="0.2053" style="stop-color:#FAAD18"/>
							<stop  offset="0.6383" style="stop-color:#EE3A24"/>
							<stop  offset="1" style="stop-color:#B32024"/>
						</linearGradient>
						<path id="path1039" inkscape:connector-curvature="0" class="st8" d="M429.9,372.3c2.8-17.6,13.8-24.3,29.8-25l0,0
							c-2.2,12.3,6.9,36,5.5,43l0,0c-4.1,22.2-40,34-59.8,34l0,0C431.1,416.1,427,393.9,429.9,372.3"/>
					</g>
				</g>
			</g>
		</g>
		
			<g id="g1041" inkscape:export-filename="C:\Users\josephkakou\Desktop\g1065.png" inkscape:export-xdpi="96" inkscape:export-ydpi="96">
			<g id="g1043">
				<g id="g1049">
					<g id="g1051">
						
							<linearGradient id="path1063_1_" gradientUnits="userSpaceOnUse" x1="-152.9023" y1="-1613.7292" x2="-151.9023" y2="-1613.7292" gradientTransform="matrix(-369.6292 640.2169 429.8345 248.1652 637847.25 498131.1875)">
							<stop  offset="0" style="stop-color:#FAAD18"/>
							<stop  offset="0.2053" style="stop-color:#FAAD18"/>
							<stop  offset="0.6383" style="stop-color:#EE3A24"/>
							<stop  offset="1" style="stop-color:#B32024"/>
						</linearGradient>
						<path id="path1063" inkscape:connector-curvature="0" class="st9" d="M351.7,365.3c9.5-11.5,37.5-22.5,47.8-34.2l0,0
							c3.9,16.2,13.1,39.7,6.5,52.3l0,0c-4.1,8.8-18.1,11.1-26.3,15.2l0,0c-11.7,5.2-15.8,14-19.3,25.1l0,0
							C336.5,413.7,337.6,381.6,351.7,365.3"/>
					</g>
				</g>
			</g>
		</g>
		
			<g id="g1065" inkscape:export-filename="C:\Users\josephkakou\Desktop\g1065.png" inkscape:export-xdpi="96" inkscape:export-ydpi="96">
			<g id="g1067">
				<g id="g1073">
					<g id="g1075">
						
							<linearGradient id="path1087_1_" gradientUnits="userSpaceOnUse" x1="-154.1392" y1="-1614.502" x2="-153.1392" y2="-1614.502" gradientTransform="matrix(-209.5324 362.9209 243.6611 140.6779 361722.4375 282969.9375)">
							<stop  offset="0" style="stop-color:#FAAD18"/>
							<stop  offset="0.2053" style="stop-color:#FAAD18"/>
							<stop  offset="0.6383" style="stop-color:#EE3A24"/>
							<stop  offset="1" style="stop-color:#B32024"/>
						</linearGradient>
						<path id="path1087" inkscape:connector-curvature="0" class="st10" d="M474.8,367.1c-0.4-8.1,7.6-22.2,26.9-18.7l0,0
							c-11.7-20.4-87.3-27.7-83.5,9.5l0,0c-3.4-5.4-12.8-31.7-1.2-51l0,0c5.7-9.5,13.7-13.4,24.5-16.3l0,0
							c7.9-2.1,14.9,0.4,22.7,1.1l0,0c1.6-13.9-10.6-24.5-22.7-32.6l0,0c-15.2-10.1-27.7-9.4-35.3-8.6l0,0c-2.5,0.3-4.6,0.5-5.9,0.4
							l0,0c5.7-13.7,13.2-24.7,28.9-27.5l0,0c7.3-1.3,15.3,0,22.5,1.3l0,0c6.6,1.3,11.9,5.3,17.9,6.9l0,0
							c-1.5-25-27.7-30.7-46.6-36.7l0,0c4.9-2.5,19.8-18.6,39.7-15.1l0,0c10.5,1.8,19.3,6.3,28.5,11l0,0
							c-4.9-12.4-15.1-23-28.5-23.4l0,0c16.9-11.6,27.9-13,43.6-8.5l0,0c8.4,2.4,15.6,7.3,23.6,10.3l0,0c-6-20.4-17.7-26.2-27-29.1
							l0,0c-17.8-5.6-38.5-12.5-63.6-13.4l0,0c-31.5-1.2-64.2-14.6-80-47.3l0,0c16.3,8.8,28.6,12.9,47.3,9.9l0,0
							c17.2-2.3,26.6,3.3,36.9,16.9l0,0c-8.8-12-6.8-38,7.5-44.9l0,0c2.3,11.1,7.6,19.9,18.7,23.9l0,0c11.1,3.5,22.2,3.5,21.6,18.7
							l0,0c0.5-17.4,9.7-25.7,19-38.1l0,0c-4.6,9.1,5.1,22.9,11.9,27.6l0,0c-11.1-11.7,5.3-32.7,16.3-37.4l0,0
							c13.4-5.3,35.1-1.3,44.4,4.1l0,0c-55,11.9-30.9,66.6-23.4,75.9l0,0c2.5,3,6.5-11,6.5-11l0,0c0,0,2.7,10.4,6.7,20l0,0l0.2-0.2
							c0,0,0.1-1.4,0.9-2.9l0,0c1-1.8,2.9-3.6,6.6-2.6l0,0c-2.2,19.1,2.4,36.4,2.3,36.6l0,0c9.3,0,15.3,7.3,24.7,7.7l0,0
							c1.6-0.5,3.2,0.8,5.4,2l0,0c3.2,1.8,7.5,3.6,14.4,0.1l0,0c-6.6,12.9-12.2,9.9-14.1,12.1l0,0c-5,4.9-7.2,9.5-7.2,9.5l0,0
							c0,0-10.4,10.1-22.8,9.1l0,0c-7.2-0.5-18.8-0.3-15.2,11.2l0,0c-3-3.4-6.9-9.1-6.1-13.7l0,0c0.8-4,5.9-7.6,3.9-8l0,0
							c-9.1,3.2-17.5,10.5-22.4,17.9l0,0c-8,12-6.9,27.1-4.7,40.7l0,0c4.6,28.8,13.9,95.4-19.3,108.6l0,0
							c-26.5,10.5-32.2,30.6-37.9,32.6l0,0C492.9,393.3,475.4,379.8,474.8,367.1 M576.3,211c4.4-1.5,20.6-8.7,28.6-11.1l0,0l-8-0.5
							C595.9,201.4,598.8,201.1,576.3,211"/>
					</g>
				</g>
			</g>
		</g>
	</g>
	<text transform="matrix(1.4405 0 0 1 180.3105 545.2715)" class="st11 st12 st13">Afro Tech</text>
</g>
</svg>
